Coordinates
version=1
nRows=17
nColumns=36
inDegrees=yes

Units are S.I. units (second, meters, Newtons, ...)
If the header above contains a line with 'inDegrees', this indicates whether rotational values are in degrees (yes) or radians (no).

endheader
time	pelvis_tilt	pelvis_list	pelvis_rotation	pelvis_tx	pelvis_ty	pelvis_tz	hip_flexion_r	hip_adduction_r	hip_rotation_r	knee_angle_r	knee_angle_r_beta	ankle_angle_r	subtalar_angle_r	mtp_angle_r	hip_flexion_l	hip_adduction_l	hip_rotation_l	knee_angle_l	knee_angle_l_beta	ankle_angle_l	subtalar_angle_l	mtp_angle_l	lumbar_extension	lumbar_bending	lumbar_rotation	arm_flex_r	arm_add_r	arm_rot_r	elbow_flex_r	pro_sup_r	arm_flex_l	arm_add_l	arm_rot_l	elbow_flex_l	pro_sup_l
      0.99000000	    -17.49936735	      0.83134474	      2.61948325	     -0.67722814	      1.25679161	     -0.58528117	     37.43746249	     -3.54164097	     -2.37261828	     54.55096017	      0.95209387	    -22.11148979	    -14.73548414	     -5.01558685	     31.78396424	     -1.13292109	     -2.46893129	     61.66432237	      1.07624546	    -12.43071644	     -1.11768740	     -5.01558685	     -6.08816561	      1.78721320	     -3.74299642	     38.02637384	    -49.91666006	      9.71901723	    102.16563711	    103.12678293	     49.30215586	    -48.53234498	      9.52764559	     91.16141152	     94.67921908
      1.00000000	    -17.25404640	      1.22188578	      2.65850848	     -0.66774149	      1.26132260	     -0.58491961	     37.89151082	     -3.90643612	     -2.49079630	     52.99516998	      0.92494020	    -22.61817446	    -13.81289049	     -5.04560181	     33.03275870	     -1.09720155	     -3.33164372	     63.32376632	      1.10520822	    -11.94254702	     -1.57791441	     -5.04560181	     -6.78989127	      1.31495569	     -3.82682251	     37.63050346	    -49.58273375	      9.08262085	    100.70866016	    103.05143641	     48.72312413	    -48.21724811	      9.21661012	     90.41031937	     94.62682235
      1.01000000	    -17.00796192	      1.59372005	      2.79552684	     -0.65845806	      1.26497703	     -0.58483136	     38.22822022	     -4.31466913	     -2.65063191	     51.13511644	      0.89247615	    -23.25453105	    -12.82471864	     -5.06811335	     34.15285168	     -1.07768990	     -4.13389971	     64.27819777	      1.12186619	    -11.42410156	     -1.82734755	     -5.06811335	     -7.55235221	      0.85862225	     -4.00840762	     37.32172029	    -49.21241415	      8.52502375	     99.27592530	    102.97421551	     48.24452102	    -47.83304751	      9.05221529	     89.73872155	     94.58478033
      1.02000000	    -16.73065418	      1.91579367	      3.00771990	     -0.64949142	      1.26766903	     -0.58511161	     38.48450806	     -4.76134656	     -2.91288321	     49.11959225	      0.85729861	    -24.10357563	    -11.69928649	     -5.09829271	     35.18582271	     -1.03874563	     -4.72787924	     64.62453349	      1.12791089	    -10.73754582	     -1.67928913	     -5.09829271	     -8.42147882	      0.52926890	     -4.24226673	     37.20117013	    -48.84449210	      7.95936879	     97.85785366	    102.95653277	     47.90506817	    -47.44797475	      9.05838420	     89.05217823	     94.58719117
      1.03000000	    -16.41811281	      2.21685460	      3.19841811	     -0.64049807	      1.26948427	     -0.58509437	     38.62297361	     -5.11262313	     -3.12836498	     46.98448519	      0.82003396	    -24.89595666	    -10.77263529	     -5.11862389	     36.04018813	     -1.04569255	     -5.12021106	     64.23667394	      1.12114146	    -10.24336540	     -1.23428678	     -5.11862389	     -9.34299528	      0.17937490	     -4.47458101	     37.06482379	    -48.61258557	      7.64735378	     96.58261967	    102.95016174	     47.63670073	    -47.22639648	      9.35696564	     88.52606203	     94.61413601
      1.04000000	    -15.89241362	      2.40348730	      3.32150308	     -0.63154988	      1.27058451	     -0.58454947	     38.50398078	     -5.26452496	     -3.33341317	     44.85858600	      0.78293002	    -25.87546240	     -9.68945437	     -5.16413643	     36.59149275	     -1.29105995	     -5.37166996	     63.32135902	      1.10516620	     -9.70365578	      0.08077977	     -5.16413643	    -10.49084767	     -0.06062814	     -4.64658079	     37.23960859	    -48.23692741	      7.53303600	     95.18009597	    103.06657872	     47.73042000	    -47.12891729	     10.11615754	     87.76870600	     94.74899127
      1.05000000	    -15.39459658	      2.54252060	      3.47351356	     -0.62255360	      1.27063592	     -0.58392015	     38.37923847	     -5.30119696	     -3.33197113	     42.82660408	      0.74746525	    -26.53982257	     -8.99263295	     -5.23586427	     37.06922269	     -1.53303792	     -5.44307673	     61.81533358	      1.07888110	     -9.54377184	      1.25058833	     -5.23586427	    -11.56023335	     -0.24109195	     -4.83082458	     37.39189184	    -48.00045312	      7.73792357	     93.99387725	    103.24942364	     47.85599416	    -47.05782962	     11.08321968	     87.10614096	     94.99624278
      1.06000000	    -14.87001326	      2.60418695	      3.64191287	     -0.61336227	      1.26982973	     -0.58326158	     38.17720169	     -5.27206835	     -3.30391585	     40.86403826	      0.71321201	    -27.28306749	     -8.37258406	     -5.26980924	     37.39284467	     -1.83107319	     -5.42249783	     59.80842919	      1.04385401	     -9.93704479	      1.69294166	     -5.26980924	    -12.63402825	     -0.31742221	     -5.03082203	     37.38928695	    -47.72717112	      7.73055832	     93.03041946	    103.26544727	     47.81124710	    -46.96790747	     11.69732533	     86.59342148	     95.09709830
      1.07000000	    -14.31469108	      2.65917731	      3.84544672	     -0.60392320	      1.26814107	     -0.58263605	     37.90355602	     -5.25659625	     -3.23821206	     39.01419861	      0.68092622	    -28.09834088	     -7.94009475	     -5.32951615	     37.54312694	     -2.09059182	     -5.33454398	     57.38105992	      1.00148842	    -10.49997758	      1.69131307	     -5.32951615	    -13.65777966	     -0.38238463	     -5.25083909	     37.28337742	    -47.57627060	      7.85879317	     92.22376016	    103.29299477	     47.93567381	    -46.97912061	     12.68230772	     85.96597605	     95.27875604
      1.08000000	    -13.77706264	      2.67448285	      4.09882683	     -0.59429837	      1.26549783	     -0.58221698	     37.60536715	     -5.27126131	     -3.19222282	     37.27430113	      0.65055928	    -28.79031258	     -7.36841132	     -5.37317254	     37.58994201	     -2.30338372	     -5.16732842	     54.62393516	      0.95336752	    -11.20929185	      1.31444693	     -5.37317254	    -14.59711358	     -0.29100370	     -5.51681559	     37.11967762	    -47.49815969	      8.01163737	     91.73812793	    103.30193660	     47.85765929	    -46.95599501	     13.33929922	     85.36091236	     95.39083233
      1.09000000	    -13.25257161	      2.66801401	      4.46996007	     -0.58448561	      1.26186767	     -0.58213591	     37.26112740	     -5.38230504	     -3.26649192	     35.64396281	      0.62210451	    -29.34687515	     -7.02126760	     -5.43970621	     37.55206862	     -2.40351138	     -4.92376567	     51.63077845	      0.90112708	    -12.47986116	      0.11043545	     -5.43970621	    -15.41802190	     -0.04646390	     -5.98139613	     37.17454904	    -47.34939970	      8.54833664	     91.44015231	    103.37985244	     47.60767041	    -46.95344208	     13.79608929	     84.79817622	     95.61216845
      1.10000000	    -12.79597445	      2.59284952	      4.94227172	     -0.57441226	      1.25723082	     -0.58237410	     36.89899794	     -5.54549575	     -3.53872661	     34.04193251	      0.59414381	    -29.86135969	     -6.90967086	     -5.53441394	     37.54808942	     -2.44436702	     -4.48330267	     48.57789706	      0.84784425	    -14.00592121	     -1.16968815	     -5.53441394	    -16.14893192	      0.35402146	     -6.63784880	     37.24268416	    -47.24593402	      9.13363523	     91.19932415	    103.48126124	     46.87745035	    -47.14130780	     13.55319513	     84.41076689	     95.97585527
      1.11000000	    -12.46541618	      2.42640927	      5.49526212	     -0.56393189	      1.25146560	     -0.58284931	     36.55779681	     -5.71229845	     -3.94169974	     32.42932325	      0.56599846	    -30.16186221	     -6.72873729	     -5.55779185	     37.65538248	     -2.56678572	     -4.00299639	     45.60389094	      0.79593805	    -15.03669247	     -1.15313748	     -5.55779185	    -16.67932329	      0.74010141	     -7.06496522	     36.65461953	    -47.34401609	      9.19099711	     91.18631446	    103.46867674	     46.48370554	    -47.00186774	     13.59994123	     84.19417987	     96.04125557
      1.12000000	    -12.14213766	      2.26647402	      6.02296297	     -0.55300026	      1.24477354	     -0.58339114	     36.19877456	     -5.90831376	     -4.45744303	     30.90008399	      0.53930820	    -30.64491533	     -6.67601109	     -5.59428664	     37.65268146	     -2.69650475	     -3.72651760	     42.50557169	      0.74186218	    -17.08819388	     -1.53473561	     -5.59428664	    -17.19553802	      1.06421598	     -7.29591890	     35.57800701	    -47.54841630	      8.65867001	     91.44190540	    103.47352190	     46.21539547	    -46.69980018	     13.69709777	     84.14914047	     96.22424653
      1.13000000	    -11.94701754	      2.19578627	      6.51630675	     -0.54181576	      1.23673185	     -0.58383446	     35.98169898	     -6.14523315	     -4.80572803	     29.47065727	      0.51436000	    -31.01734158	     -6.86421096	     -5.63958442	     37.69738374	     -2.71347872	     -3.43476653	     39.45712759	      0.68865679	    -19.18170321	     -1.58267959	     -5.63958442	    -17.45433746	      1.35553399	     -7.48074837	     34.36797399	    -47.70054035	      8.04450988	     91.93614321	    103.53394263	     45.87766255	    -46.47683766	     13.81419241	     84.03947945	     96.47268905
      1.14000000	    -11.76061728	      2.12105283	      7.05754271	     -0.53050810	      1.22756113	     -0.58442923	     35.75722219	     -6.42805239	     -5.18508761	     28.12161987	      0.49081486	    -31.35605952	     -7.03726812	     -5.67900858	     37.69471981	     -2.66692444	     -2.96413256	     36.45482389	      0.63625671	    -20.95928019	     -0.73005938	     -5.67900858	    -17.60015506	      1.80714089	     -7.89795352	     33.60303232	    -47.74917011	      7.92233431	     92.34707278	    103.62432402	     45.18773949	    -46.50101170	     13.65648075	     83.90916996	     96.66591726
      1.15000000	    -11.64643775	      2.01069707	      7.61799473	     -0.51910345	      1.21714641	     -0.58530607	     35.59615921	     -6.73123348	     -5.57092687	     26.81396125	      0.46799191	    -31.63158852	     -7.06220291	     -5.70801178	     37.74734548	     -2.54100968	     -2.22951913	     33.59441170	      0.58633309	    -22.42286519	      0.54163395	     -5.70801178	    -17.57209963	      2.27692317	     -8.32633221	     32.87873618	    -47.83640625	      7.96014456	     92.59646642	    103.68600920	     44.44530536	    -46.52288183	     13.40110205	     83.84246238	     96.78537538
